<svg id="Layer_1" data-name="Layer 1" xmlns="http://www.w3.org/2000/svg" viewBox="0 0 662.7 119"><defs><style>.cls-1{fill:#38354a;}.cls-2{fill:#ed1e3d;}.cls-3{fill:#fff;}.cls-4{fill:#4182c2;}.cls-5{fill:#6b2a7c;}</style></defs><path class="cls-1" d="M186.25,127.69a5,5,0,0,1,.94-2.36l63-76a1.18,1.18,0,0,0-.94-1.88H190a1.11,1.11,0,0,1-1.18-1.18V28.68A1.11,1.11,0,0,1,190,27.5H276.8A1.11,1.11,0,0,1,278,28.68V46.31a3.78,3.78,0,0,1-.94,2.36l-62.55,76c-.71.7,0,1.88.94,1.88h64.43a1.11,1.11,0,0,1,1.18,1.18v17.63a1.11,1.11,0,0,1-1.18,1.18H187.43a1.11,1.11,0,0,1-1.18-1.18Z" transform="translate(-22.65 -27.5)"/><path class="cls-1" d="M407.34,143.11a1.07,1.07,0,0,1-1.13,1.13h-8.14c-12,.22-19-3.17-22.4-10.41a1.22,1.22,0,0,0-2-.45c-5.43,5.65-19.23,13.12-40.05,13.12-30.31,0-45.47-14.71-45.47-36.2,0-19.68,16.51-34.39,49.77-34.39h25.34c7.46,0,7.46-2.71,7.46-7,0-9.27-2.26-22.17-29.18-22.17-19.46,0-27.6,9.05-27.6,20.59a1.07,1.07,0,0,1-1.13,1.13H293.32a1.07,1.07,0,0,1-1.13-1.13c0-26.7,23.76-39.82,49.32-39.82,31.22,0,50.68,14.25,50.68,41.85V113.7c0,7,.9,11.31,9.72,11.31h4.3a1.07,1.07,0,0,1,1.13,1.13ZM370.69,94a1.2,1.2,0,0,0-1.13-1.13H337.89c-24.21,1.13-28.28,9.5-28.28,17.42,0,8.15,5.66,17,23.76,17,27.37,0,36.87-16.29,37.32-30.09Z" transform="translate(-22.65 -27.5)"/><path class="cls-1" d="M436.84,29.81c.7,0,.93.46,1.16,1.15l2.3,10.38c.46,1.38,2.08.92,2.54.23,4.84-6.69,14.76-14.07,30.21-14.07,33.44,0,50.28,24.45,50.28,54.43v63.42a1.09,1.09,0,0,1-1.16,1.15h-19.6a1.09,1.09,0,0,1-1.15-1.15V81.93c0-17.53-7.84-34.83-30.68-34.83-19.37,0-30.44,16.84-30.44,34.83v63.42a1.09,1.09,0,0,1-1.15,1.15h-19.6a1.09,1.09,0,0,1-1.16-1.15V31a1.09,1.09,0,0,1,1.16-1.15Z" transform="translate(-22.65 -27.5)"/><path class="cls-1" d="M562,145.63c0,.52-.47.87-1.18.87h-20c-.7,0-1.17-.35-1.17-.87V59.37c0-.52.47-.87,1.17-.87h20c.71,0,1.18.35,1.18.87Z" transform="translate(-22.65 -27.5)"/><path class="cls-1" d="M562,49.62c0,.13-.47.22-1.18.22h-20c-.7,0-1.17-.09-1.17-.22V27.72c0-.13.47-.22,1.17-.22h20c.71,0,1.18.09,1.18.22Z" transform="translate(-22.65 -27.5)"/><path class="cls-1" d="M598,95.82c0,16.52,12,31.45,32.13,31.45,16.06,0,24-6.79,28.73-15.84.45-.9.91-1.13,1.58-1.13H680.6c.68,0,1.36.23,1.13,1.13-5.88,22.17-26,35.07-51.58,35.07-33.94,0-55-24.21-55-59.5,0-35.52,19.91-59.5,55-59.5,35.29,0,55.2,24.21,55.2,59.5a29.38,29.38,0,0,1-.68,6.56c-.23.68-.45,1.13-1.13,1.13H599.15A1.07,1.07,0,0,0,598,95.82Zm32.13-49.09C608.2,46.73,598,66,598,76.59a1.21,1.21,0,0,0,1.13,1.13h61.54a1.07,1.07,0,0,0,1.13-1.13C661.82,63.7,652.55,46.73,630.15,46.73Z" transform="translate(-22.65 -27.5)"/><rect class="cls-2" width="119" height="119" rx="22.34"/><circle class="cls-3" cx="58.88" cy="78.7" r="40.01"/><path class="cls-4" d="M35,104.89a52.51,52.51,0,0,1-4.19-13A55.24,55.24,0,0,1,30,77.64a53.8,53.8,0,0,1,3.5-15.77A54.55,54.55,0,0,1,40.38,49.3a53.87,53.87,0,0,1,8.06-8.75,45.78,45.78,0,0,1,7.82-5.64,71.15,71.15,0,0,1,8.8-4.12,47.55,47.55,0,0,1,16.79-3A49.37,49.37,0,0,1,97.7,30.24a50.57,50.57,0,0,1,13.17,6.42,57.44,57.44,0,0,1,7.49,6.12,71.31,71.31,0,0,1,4.81,5.58A46.34,46.34,0,0,1,128.64,57a57.4,57.4,0,0,1,4,10.51,51.93,51.93,0,0,1,1.8,12.38,54.32,54.32,0,0,1-1.61,15,55,55,0,0,1-4.15,11.34,1.77,1.77,0,0,1-.16.22A27.1,27.1,0,0,0,127,98.56,23.38,23.38,0,0,0,120.5,89,21.33,21.33,0,0,0,114,84.93a23.48,23.48,0,0,0-12.12-1.56c-1.66.25-3.29.68-4.93,1-2.33-.2-4.65-.47-7-.57q-6.27-.28-12.55-.39c-3.58-.06-7.16,0-10.74,0h-.78a4.63,4.63,0,0,1-.65-.1A23.71,23.71,0,0,0,38.48,93.62,23.54,23.54,0,0,0,35,104.89Z" transform="translate(-22.65 -27.5)"/><circle class="cls-5" cx="36.08" cy="78.82" r="23.93"/><circle class="cls-5" cx="81.88" cy="78.82" r="23.93"/><path class="cls-2" d="M80.89,137.57a5.94,5.94,0,0,1-5.61-6.44,6,6,0,0,1,12.06.92A6,6,0,0,1,80.89,137.57Z" transform="translate(-22.65 -27.5)"/></svg>